<mxfile host="app.diagrams.net" modified="2024-04-20T12:27:25.952Z" agent="Mozilla/5.0 (Windows NT 10.0; Win64; x64) AppleWebKit/537.36 (KHTML, like Gecko) Chrome/123.0.0.0 Safari/537.36 Edg/123.0.0.0" etag="VR-c3_Nje-_okm-83-8F" version="24.2.7" type="github">
  <diagram name="Page-1" id="MOQXqQ0aRUz0cBDaTk6Z">
    <mxGraphModel dx="2634" dy="802" grid="1" gridSize="10" guides="1" tooltips="1" connect="1" arrows="1" fold="1" page="1" pageScale="1" pageWidth="1200" pageHeight="1920" math="0" shadow="0">
      <root>
        <mxCell id="0" />
        <mxCell id="1" parent="0" />
        <mxCell id="z_N1E-0bhla6XUxOwXqp-23" style="edgeStyle=orthogonalEdgeStyle;rounded=0;orthogonalLoop=1;jettySize=auto;html=1;exitX=1;exitY=0.5;exitDx=0;exitDy=0;entryX=0;entryY=0.5;entryDx=0;entryDy=0;" parent="1" source="z_N1E-0bhla6XUxOwXqp-1" target="z_N1E-0bhla6XUxOwXqp-5" edge="1">
          <mxGeometry relative="1" as="geometry" />
        </mxCell>
        <mxCell id="z_N1E-0bhla6XUxOwXqp-26" value="Данные&lt;div&gt;пользователя&lt;/div&gt;" style="edgeLabel;html=1;align=center;verticalAlign=middle;resizable=0;points=[];" parent="z_N1E-0bhla6XUxOwXqp-23" vertex="1" connectable="0">
          <mxGeometry x="-0.086" y="1" relative="1" as="geometry">
            <mxPoint as="offset" />
          </mxGeometry>
        </mxCell>
        <mxCell id="z_N1E-0bhla6XUxOwXqp-1" value="" style="rounded=0;whiteSpace=wrap;html=1;strokeColor=#3399FF;fillColor=#3399FF;" parent="1" vertex="1">
          <mxGeometry x="100" y="190" width="150" height="100" as="geometry" />
        </mxCell>
        <mxCell id="z_N1E-0bhla6XUxOwXqp-2" value="&lt;font color=&quot;#ffffff&quot;&gt;A1&lt;/font&gt;" style="text;html=1;align=center;verticalAlign=middle;whiteSpace=wrap;rounded=0;" parent="1" vertex="1">
          <mxGeometry x="190" y="260" width="60" height="30" as="geometry" />
        </mxCell>
        <mxCell id="z_N1E-0bhla6XUxOwXqp-4" value="&lt;font style=&quot;font-size: 14px;&quot; color=&quot;#ffffff&quot;&gt;Регистрация и вход в систему&lt;/font&gt;" style="text;html=1;align=center;verticalAlign=middle;whiteSpace=wrap;rounded=0;" parent="1" vertex="1">
          <mxGeometry x="145" y="220" width="60" height="30" as="geometry" />
        </mxCell>
        <mxCell id="z_N1E-0bhla6XUxOwXqp-24" style="edgeStyle=orthogonalEdgeStyle;rounded=0;orthogonalLoop=1;jettySize=auto;html=1;exitX=1;exitY=0.5;exitDx=0;exitDy=0;entryX=0;entryY=0.5;entryDx=0;entryDy=0;" parent="1" source="z_N1E-0bhla6XUxOwXqp-5" target="z_N1E-0bhla6XUxOwXqp-19" edge="1">
          <mxGeometry relative="1" as="geometry" />
        </mxCell>
        <mxCell id="z_N1E-0bhla6XUxOwXqp-25" value="Индивидуально&lt;div&gt;подобранные&lt;/div&gt;&lt;div&gt;направления&lt;/div&gt;" style="edgeLabel;html=1;align=center;verticalAlign=middle;resizable=0;points=[];" parent="z_N1E-0bhla6XUxOwXqp-24" vertex="1" connectable="0">
          <mxGeometry x="-0.0934" y="-4" relative="1" as="geometry">
            <mxPoint y="9" as="offset" />
          </mxGeometry>
        </mxCell>
        <mxCell id="z_N1E-0bhla6XUxOwXqp-5" value="" style="rounded=0;whiteSpace=wrap;html=1;strokeColor=#3399FF;fillColor=#3399FF;" parent="1" vertex="1">
          <mxGeometry x="320" y="310" width="150" height="100" as="geometry" />
        </mxCell>
        <mxCell id="z_N1E-0bhla6XUxOwXqp-6" value="&lt;font color=&quot;#ffffff&quot;&gt;A2&lt;/font&gt;" style="text;html=1;align=center;verticalAlign=middle;whiteSpace=wrap;rounded=0;" parent="1" vertex="1">
          <mxGeometry x="420" y="380" width="60" height="30" as="geometry" />
        </mxCell>
        <mxCell id="z_N1E-0bhla6XUxOwXqp-7" value="&lt;font style=&quot;font-size: 14px;&quot; color=&quot;#ffffff&quot;&gt;Тестирование&lt;/font&gt;&lt;div style=&quot;font-size: 14px;&quot;&gt;&lt;font style=&quot;font-size: 14px;&quot; color=&quot;#ffffff&quot;&gt;для определения интересов&lt;/font&gt;&lt;/div&gt;" style="text;html=1;align=center;verticalAlign=middle;whiteSpace=wrap;rounded=0;" parent="1" vertex="1">
          <mxGeometry x="365" y="340" width="60" height="30" as="geometry" />
        </mxCell>
        <mxCell id="z_N1E-0bhla6XUxOwXqp-31" style="edgeStyle=orthogonalEdgeStyle;rounded=0;orthogonalLoop=1;jettySize=auto;html=1;exitX=1;exitY=0.5;exitDx=0;exitDy=0;entryX=0;entryY=0.5;entryDx=0;entryDy=0;" parent="1" target="Vlz3xNWBXDuBfNGgYL4V-5" edge="1">
          <mxGeometry relative="1" as="geometry">
            <mxPoint x="961" y="515" as="sourcePoint" />
            <mxPoint x="1041" y="590" as="targetPoint" />
          </mxGeometry>
        </mxCell>
        <mxCell id="z_N1E-0bhla6XUxOwXqp-32" value="Выбранный&lt;div&gt;курс&lt;/div&gt;" style="edgeLabel;html=1;align=center;verticalAlign=middle;resizable=0;points=[];" parent="z_N1E-0bhla6XUxOwXqp-31" vertex="1" connectable="0">
          <mxGeometry x="-0.2364" y="1" relative="1" as="geometry">
            <mxPoint x="-1" y="28" as="offset" />
          </mxGeometry>
        </mxCell>
        <mxCell id="z_N1E-0bhla6XUxOwXqp-8" value="" style="rounded=0;whiteSpace=wrap;html=1;strokeColor=#3399FF;fillColor=#3399FF;" parent="1" vertex="1">
          <mxGeometry x="810" y="465" width="150" height="100" as="geometry" />
        </mxCell>
        <mxCell id="z_N1E-0bhla6XUxOwXqp-9" value="&lt;font color=&quot;#ffffff&quot;&gt;A4&lt;/font&gt;" style="text;html=1;align=center;verticalAlign=middle;whiteSpace=wrap;rounded=0;" parent="1" vertex="1">
          <mxGeometry x="910" y="535" width="60" height="30" as="geometry" />
        </mxCell>
        <mxCell id="z_N1E-0bhla6XUxOwXqp-10" value="&lt;span style=&quot;color: rgb(255, 255, 255);&quot;&gt;&lt;font style=&quot;font-size: 16px;&quot;&gt;Выбор курсов&lt;/font&gt;&lt;/span&gt;" style="text;html=1;align=center;verticalAlign=middle;whiteSpace=wrap;rounded=0;" parent="1" vertex="1">
          <mxGeometry x="855" y="500" width="60" height="30" as="geometry" />
        </mxCell>
        <mxCell id="z_N1E-0bhla6XUxOwXqp-33" style="edgeStyle=orthogonalEdgeStyle;rounded=0;orthogonalLoop=1;jettySize=auto;html=1;exitX=1;exitY=0.5;exitDx=0;exitDy=0;" parent="1" source="z_N1E-0bhla6XUxOwXqp-11" target="z_N1E-0bhla6XUxOwXqp-14" edge="1">
          <mxGeometry relative="1" as="geometry" />
        </mxCell>
        <mxCell id="z_N1E-0bhla6XUxOwXqp-34" value="Результаты&lt;div&gt;выполнения заданий&lt;/div&gt;&lt;div&gt;и продвижение по курсу&lt;/div&gt;" style="edgeLabel;html=1;align=center;verticalAlign=middle;resizable=0;points=[];" parent="z_N1E-0bhla6XUxOwXqp-33" vertex="1" connectable="0">
          <mxGeometry x="-0.295" y="-1" relative="1" as="geometry">
            <mxPoint y="40" as="offset" />
          </mxGeometry>
        </mxCell>
        <mxCell id="z_N1E-0bhla6XUxOwXqp-58" style="edgeStyle=orthogonalEdgeStyle;rounded=0;orthogonalLoop=1;jettySize=auto;html=1;" parent="1" source="z_N1E-0bhla6XUxOwXqp-14" edge="1">
          <mxGeometry relative="1" as="geometry">
            <mxPoint x="1830" y="710" as="targetPoint" />
          </mxGeometry>
        </mxCell>
        <mxCell id="z_N1E-0bhla6XUxOwXqp-14" value="" style="rounded=0;whiteSpace=wrap;html=1;strokeColor=#3399FF;fillColor=#3399FF;" parent="1" vertex="1">
          <mxGeometry x="1580" y="660" width="150" height="100" as="geometry" />
        </mxCell>
        <mxCell id="z_N1E-0bhla6XUxOwXqp-15" value="&lt;font color=&quot;#ffffff&quot;&gt;A7&lt;/font&gt;" style="text;html=1;align=center;verticalAlign=middle;whiteSpace=wrap;rounded=0;" parent="1" vertex="1">
          <mxGeometry x="1670" y="730" width="60" height="30" as="geometry" />
        </mxCell>
        <mxCell id="z_N1E-0bhla6XUxOwXqp-16" value="&lt;font style=&quot;font-size: 16px;&quot; color=&quot;#ffffff&quot;&gt;Отслеживание&lt;/font&gt;&lt;div style=&quot;font-size: 16px;&quot;&gt;&lt;font style=&quot;font-size: 16px;&quot; color=&quot;#ffffff&quot;&gt;прогресса и завершение курсов&lt;/font&gt;&lt;/div&gt;" style="text;html=1;align=center;verticalAlign=middle;whiteSpace=wrap;rounded=0;" parent="1" vertex="1">
          <mxGeometry x="1625" y="690" width="60" height="30" as="geometry" />
        </mxCell>
        <mxCell id="z_N1E-0bhla6XUxOwXqp-38" style="edgeStyle=orthogonalEdgeStyle;rounded=0;orthogonalLoop=1;jettySize=auto;html=1;entryX=0.5;entryY=0;entryDx=0;entryDy=0;" parent="1" source="z_N1E-0bhla6XUxOwXqp-17" target="z_N1E-0bhla6XUxOwXqp-1" edge="1">
          <mxGeometry relative="1" as="geometry" />
        </mxCell>
        <mxCell id="z_N1E-0bhla6XUxOwXqp-17" value="&lt;font style=&quot;font-size: 13px;&quot;&gt;Политика конфиденциальности и требования безопасности&lt;/font&gt;" style="text;html=1;align=center;verticalAlign=middle;whiteSpace=wrap;rounded=0;" parent="1" vertex="1">
          <mxGeometry x="90" y="40" width="170" height="90" as="geometry" />
        </mxCell>
        <mxCell id="z_N1E-0bhla6XUxOwXqp-18" value="Желание&lt;div&gt;пользователя&lt;/div&gt;" style="text;html=1;align=center;verticalAlign=middle;whiteSpace=wrap;rounded=0;" parent="1" vertex="1">
          <mxGeometry y="200" width="60" height="30" as="geometry" />
        </mxCell>
        <mxCell id="z_N1E-0bhla6XUxOwXqp-29" style="edgeStyle=orthogonalEdgeStyle;rounded=0;orthogonalLoop=1;jettySize=auto;html=1;exitX=1;exitY=0.5;exitDx=0;exitDy=0;" parent="1" source="z_N1E-0bhla6XUxOwXqp-19" target="z_N1E-0bhla6XUxOwXqp-8" edge="1">
          <mxGeometry relative="1" as="geometry" />
        </mxCell>
        <mxCell id="z_N1E-0bhla6XUxOwXqp-30" value="Выбранное&lt;div&gt;направление&lt;/div&gt;" style="edgeLabel;html=1;align=center;verticalAlign=middle;resizable=0;points=[];" parent="z_N1E-0bhla6XUxOwXqp-29" vertex="1" connectable="0">
          <mxGeometry x="-0.0093" y="-5" relative="1" as="geometry">
            <mxPoint as="offset" />
          </mxGeometry>
        </mxCell>
        <mxCell id="z_N1E-0bhla6XUxOwXqp-19" value="" style="rounded=0;whiteSpace=wrap;html=1;strokeColor=#3399FF;fillColor=#3399FF;" parent="1" vertex="1">
          <mxGeometry x="575" y="370" width="150" height="100" as="geometry" />
        </mxCell>
        <mxCell id="z_N1E-0bhla6XUxOwXqp-20" value="&lt;font color=&quot;#ffffff&quot;&gt;A3&lt;/font&gt;" style="text;html=1;align=center;verticalAlign=middle;whiteSpace=wrap;rounded=0;" parent="1" vertex="1">
          <mxGeometry x="665" y="440" width="60" height="30" as="geometry" />
        </mxCell>
        <mxCell id="z_N1E-0bhla6XUxOwXqp-21" value="&lt;font style=&quot;font-size: 16px;&quot; color=&quot;#ffffff&quot;&gt;Выбор направлений обучения&lt;/font&gt;" style="text;html=1;align=center;verticalAlign=middle;whiteSpace=wrap;rounded=0;" parent="1" vertex="1">
          <mxGeometry x="620" y="400" width="60" height="30" as="geometry" />
        </mxCell>
        <mxCell id="z_N1E-0bhla6XUxOwXqp-35" value="" style="edgeStyle=none;orthogonalLoop=1;jettySize=auto;html=1;endArrow=classic;startArrow=classic;endSize=8;startSize=8;rounded=0;exitX=0.5;exitY=1;exitDx=0;exitDy=0;entryX=0.5;entryY=1;entryDx=0;entryDy=0;" parent="1" target="z_N1E-0bhla6XUxOwXqp-15" edge="1">
          <mxGeometry width="100" relative="1" as="geometry">
            <mxPoint x="130" y="290" as="sourcePoint" />
            <mxPoint x="1260" y="790" as="targetPoint" />
            <Array as="points">
              <mxPoint x="135" y="830" />
              <mxPoint x="595" y="830" />
              <mxPoint x="755" y="830" />
              <mxPoint x="965" y="830" />
              <mxPoint x="1160" y="830" />
              <mxPoint x="1500" y="830" />
              <mxPoint x="1700" y="830" />
            </Array>
          </mxGeometry>
        </mxCell>
        <mxCell id="z_N1E-0bhla6XUxOwXqp-36" value="" style="endArrow=classic;startArrow=classic;html=1;rounded=0;exitX=0.5;exitY=1;exitDx=0;exitDy=0;" parent="1" source="z_N1E-0bhla6XUxOwXqp-14" edge="1">
          <mxGeometry width="50" height="50" relative="1" as="geometry">
            <mxPoint x="1200" y="790" as="sourcePoint" />
            <mxPoint x="215" y="290" as="targetPoint" />
            <Array as="points">
              <mxPoint x="1655" y="790" />
              <mxPoint x="1455" y="790" />
              <mxPoint x="1205" y="790" />
              <mxPoint x="1140" y="790" />
              <mxPoint x="1080" y="790" />
              <mxPoint x="960" y="790" />
              <mxPoint x="710" y="790" />
              <mxPoint x="215" y="790" />
            </Array>
          </mxGeometry>
        </mxCell>
        <mxCell id="z_N1E-0bhla6XUxOwXqp-40" value="" style="endArrow=classic;startArrow=classic;html=1;rounded=0;exitX=0.5;exitY=0;exitDx=0;exitDy=0;entryX=0.5;entryY=0;entryDx=0;entryDy=0;" parent="1" source="z_N1E-0bhla6XUxOwXqp-19" target="z_N1E-0bhla6XUxOwXqp-11" edge="1">
          <mxGeometry width="50" height="50" relative="1" as="geometry">
            <mxPoint x="590" y="340" as="sourcePoint" />
            <mxPoint x="1135" y="410" as="targetPoint" />
            <Array as="points">
              <mxPoint x="650" y="120" />
              <mxPoint x="870" y="120" />
              <mxPoint x="1355" y="120" />
            </Array>
          </mxGeometry>
        </mxCell>
        <mxCell id="z_N1E-0bhla6XUxOwXqp-45" style="edgeStyle=orthogonalEdgeStyle;rounded=0;orthogonalLoop=1;jettySize=auto;html=1;entryX=0.5;entryY=0;entryDx=0;entryDy=0;" parent="1" target="z_N1E-0bhla6XUxOwXqp-8" edge="1">
          <mxGeometry relative="1" as="geometry">
            <mxPoint x="885" y="120" as="sourcePoint" />
          </mxGeometry>
        </mxCell>
        <mxCell id="z_N1E-0bhla6XUxOwXqp-41" value="&lt;font style=&quot;font-size: 16px;&quot;&gt;Образовательные&lt;/font&gt;&lt;div style=&quot;font-size: 16px;&quot;&gt;&lt;font style=&quot;font-size: 16px;&quot;&gt;стандарты&lt;/font&gt;&lt;/div&gt;" style="text;html=1;align=center;verticalAlign=middle;whiteSpace=wrap;rounded=0;" parent="1" vertex="1">
          <mxGeometry x="915" y="50" width="170" height="90" as="geometry" />
        </mxCell>
        <mxCell id="z_N1E-0bhla6XUxOwXqp-42" value="&lt;font style=&quot;font-size: 17px;&quot;&gt;Пользователь&lt;/font&gt;" style="text;html=1;align=center;verticalAlign=middle;whiteSpace=wrap;rounded=0;" parent="1" vertex="1">
          <mxGeometry x="-10" y="520" width="170" height="90" as="geometry" />
        </mxCell>
        <mxCell id="z_N1E-0bhla6XUxOwXqp-43" value="&lt;font style=&quot;font-size: 16px;&quot;&gt;Система&lt;/font&gt;" style="text;html=1;align=center;verticalAlign=middle;whiteSpace=wrap;rounded=0;" parent="1" vertex="1">
          <mxGeometry x="170" y="620" width="170" height="90" as="geometry" />
        </mxCell>
        <mxCell id="z_N1E-0bhla6XUxOwXqp-44" value="" style="endArrow=classic;html=1;rounded=0;entryX=0;entryY=0.5;entryDx=0;entryDy=0;" parent="1" target="z_N1E-0bhla6XUxOwXqp-1" edge="1">
          <mxGeometry width="50" height="50" relative="1" as="geometry">
            <mxPoint x="-40" y="240" as="sourcePoint" />
            <mxPoint x="40" y="240" as="targetPoint" />
          </mxGeometry>
        </mxCell>
        <mxCell id="z_N1E-0bhla6XUxOwXqp-46" value="" style="endArrow=classic;html=1;rounded=0;" parent="1" edge="1">
          <mxGeometry width="50" height="50" relative="1" as="geometry">
            <mxPoint x="410" y="790" as="sourcePoint" />
            <mxPoint x="410" y="410" as="targetPoint" />
          </mxGeometry>
        </mxCell>
        <mxCell id="z_N1E-0bhla6XUxOwXqp-47" value="" style="endArrow=classic;html=1;rounded=0;entryX=0.5;entryY=1;entryDx=0;entryDy=0;" parent="1" edge="1">
          <mxGeometry width="50" height="50" relative="1" as="geometry">
            <mxPoint x="690" y="790" as="sourcePoint" />
            <mxPoint x="690" y="470.0000000000002" as="targetPoint" />
          </mxGeometry>
        </mxCell>
        <mxCell id="z_N1E-0bhla6XUxOwXqp-48" value="" style="endArrow=classic;html=1;rounded=0;entryX=0.5;entryY=1;entryDx=0;entryDy=0;" parent="1" edge="1">
          <mxGeometry width="50" height="50" relative="1" as="geometry">
            <mxPoint x="930" y="785" as="sourcePoint" />
            <mxPoint x="930" y="565.0000000000002" as="targetPoint" />
          </mxGeometry>
        </mxCell>
        <mxCell id="z_N1E-0bhla6XUxOwXqp-49" value="" style="endArrow=classic;html=1;rounded=0;" parent="1" edge="1">
          <mxGeometry width="50" height="50" relative="1" as="geometry">
            <mxPoint x="1120" y="785" as="sourcePoint" />
            <mxPoint x="1120" y="640" as="targetPoint" />
          </mxGeometry>
        </mxCell>
        <mxCell id="z_N1E-0bhla6XUxOwXqp-50" value="" style="endArrow=classic;html=1;rounded=0;" parent="1" edge="1">
          <mxGeometry width="50" height="50" relative="1" as="geometry">
            <mxPoint x="1060" y="830" as="sourcePoint" />
            <mxPoint x="1060" y="640" as="targetPoint" />
          </mxGeometry>
        </mxCell>
        <mxCell id="z_N1E-0bhla6XUxOwXqp-51" value="" style="endArrow=classic;html=1;rounded=0;entryX=0.5;entryY=1;entryDx=0;entryDy=0;" parent="1" edge="1">
          <mxGeometry width="50" height="50" relative="1" as="geometry">
            <mxPoint x="850" y="830" as="sourcePoint" />
            <mxPoint x="850" y="565.0000000000002" as="targetPoint" />
          </mxGeometry>
        </mxCell>
        <mxCell id="z_N1E-0bhla6XUxOwXqp-52" value="" style="endArrow=classic;html=1;rounded=0;entryX=0.5;entryY=1;entryDx=0;entryDy=0;" parent="1" edge="1">
          <mxGeometry width="50" height="50" relative="1" as="geometry">
            <mxPoint x="610" y="830" as="sourcePoint" />
            <mxPoint x="610" y="470.0000000000002" as="targetPoint" />
          </mxGeometry>
        </mxCell>
        <mxCell id="z_N1E-0bhla6XUxOwXqp-53" value="" style="endArrow=classic;html=1;rounded=0;" parent="1" edge="1">
          <mxGeometry width="50" height="50" relative="1" as="geometry">
            <mxPoint x="350" y="830" as="sourcePoint" />
            <mxPoint x="350" y="410" as="targetPoint" />
          </mxGeometry>
        </mxCell>
        <mxCell id="z_N1E-0bhla6XUxOwXqp-55" style="edgeStyle=orthogonalEdgeStyle;rounded=0;orthogonalLoop=1;jettySize=auto;html=1;entryX=0.433;entryY=0;entryDx=0;entryDy=0;entryPerimeter=0;" parent="1" source="z_N1E-0bhla6XUxOwXqp-54" target="z_N1E-0bhla6XUxOwXqp-5" edge="1">
          <mxGeometry relative="1" as="geometry">
            <mxPoint x="385" y="300" as="targetPoint" />
          </mxGeometry>
        </mxCell>
        <mxCell id="z_N1E-0bhla6XUxOwXqp-54" value="&lt;font style=&quot;font-size: 15px;&quot;&gt;Образовательные&lt;/font&gt;&lt;div style=&quot;font-size: 15px;&quot;&gt;&lt;font style=&quot;font-size: 15px;&quot;&gt;и психологические&lt;/font&gt;&lt;/div&gt;&lt;div style=&quot;font-size: 15px;&quot;&gt;&lt;font style=&quot;font-size: 15px;&quot;&gt;критерии&lt;/font&gt;&lt;/div&gt;" style="text;html=1;align=center;verticalAlign=middle;whiteSpace=wrap;rounded=0;" parent="1" vertex="1">
          <mxGeometry x="300" y="40" width="170" height="90" as="geometry" />
        </mxCell>
        <mxCell id="z_N1E-0bhla6XUxOwXqp-60" value="Отчёты о прогрессе&amp;nbsp;" style="text;html=1;align=center;verticalAlign=middle;whiteSpace=wrap;rounded=0;" parent="1" vertex="1">
          <mxGeometry x="1750" y="670" width="60" height="30" as="geometry" />
        </mxCell>
        <mxCell id="z_N1E-0bhla6XUxOwXqp-61" style="edgeStyle=orthogonalEdgeStyle;rounded=0;orthogonalLoop=1;jettySize=auto;html=1;exitX=0.25;exitY=0;exitDx=0;exitDy=0;entryX=0.5;entryY=0;entryDx=0;entryDy=0;" parent="1" source="z_N1E-0bhla6XUxOwXqp-21" target="z_N1E-0bhla6XUxOwXqp-21" edge="1">
          <mxGeometry relative="1" as="geometry" />
        </mxCell>
        <mxCell id="z_N1E-0bhla6XUxOwXqp-64" style="edgeStyle=orthogonalEdgeStyle;rounded=0;orthogonalLoop=1;jettySize=auto;html=1;entryX=0.5;entryY=0;entryDx=0;entryDy=0;" parent="1" source="z_N1E-0bhla6XUxOwXqp-62" target="z_N1E-0bhla6XUxOwXqp-14" edge="1">
          <mxGeometry relative="1" as="geometry" />
        </mxCell>
        <mxCell id="z_N1E-0bhla6XUxOwXqp-62" value="&lt;span style=&quot;font-size: 16px;&quot;&gt;Критерии оценки и завершения курсов&lt;/span&gt;" style="text;html=1;align=center;verticalAlign=middle;whiteSpace=wrap;rounded=0;" parent="1" vertex="1">
          <mxGeometry x="1570" y="430" width="170" height="90" as="geometry" />
        </mxCell>
        <mxCell id="Vlz3xNWBXDuBfNGgYL4V-3" value="" style="group" vertex="1" connectable="0" parent="1">
          <mxGeometry x="1280" y="600" width="155" height="100" as="geometry" />
        </mxCell>
        <mxCell id="z_N1E-0bhla6XUxOwXqp-11" value="" style="rounded=0;whiteSpace=wrap;html=1;strokeColor=#3399FF;fillColor=#3399FF;" parent="Vlz3xNWBXDuBfNGgYL4V-3" vertex="1">
          <mxGeometry width="150" height="100" as="geometry" />
        </mxCell>
        <mxCell id="z_N1E-0bhla6XUxOwXqp-12" value="&lt;font color=&quot;#ffffff&quot;&gt;A6&lt;/font&gt;" style="text;html=1;align=center;verticalAlign=middle;whiteSpace=wrap;rounded=0;" parent="Vlz3xNWBXDuBfNGgYL4V-3" vertex="1">
          <mxGeometry x="95" y="70" width="60" height="30" as="geometry" />
        </mxCell>
        <mxCell id="z_N1E-0bhla6XUxOwXqp-13" value="&lt;font style=&quot;font-size: 16px;&quot; color=&quot;#ffffff&quot;&gt;Изучение материалов курса&lt;/font&gt;" style="text;html=1;align=center;verticalAlign=middle;whiteSpace=wrap;rounded=0;" parent="Vlz3xNWBXDuBfNGgYL4V-3" vertex="1">
          <mxGeometry x="45" y="35" width="60" height="30" as="geometry" />
        </mxCell>
        <mxCell id="Vlz3xNWBXDuBfNGgYL4V-4" value="" style="group" vertex="1" connectable="0" parent="1">
          <mxGeometry x="1030" y="535" width="155" height="100" as="geometry" />
        </mxCell>
        <mxCell id="Vlz3xNWBXDuBfNGgYL4V-5" value="" style="rounded=0;whiteSpace=wrap;html=1;strokeColor=#3399FF;fillColor=#3399FF;" vertex="1" parent="Vlz3xNWBXDuBfNGgYL4V-4">
          <mxGeometry width="150" height="100" as="geometry" />
        </mxCell>
        <mxCell id="Vlz3xNWBXDuBfNGgYL4V-6" value="&lt;font color=&quot;#ffffff&quot;&gt;A5&lt;/font&gt;" style="text;html=1;align=center;verticalAlign=middle;whiteSpace=wrap;rounded=0;" vertex="1" parent="Vlz3xNWBXDuBfNGgYL4V-4">
          <mxGeometry x="95" y="70" width="60" height="30" as="geometry" />
        </mxCell>
        <mxCell id="Vlz3xNWBXDuBfNGgYL4V-7" value="&lt;font color=&quot;#ffffff&quot;&gt;&lt;span style=&quot;font-size: 16px;&quot;&gt;Составление&lt;/span&gt;&lt;/font&gt;&lt;div&gt;&lt;font color=&quot;#ffffff&quot;&gt;&lt;span style=&quot;font-size: 16px;&quot;&gt;индивидуального&lt;/span&gt;&lt;/font&gt;&lt;/div&gt;&lt;div&gt;&lt;font color=&quot;#ffffff&quot;&gt;&lt;span style=&quot;font-size: 16px;&quot;&gt;учебного плана&lt;/span&gt;&lt;/font&gt;&lt;/div&gt;" style="text;html=1;align=center;verticalAlign=middle;whiteSpace=wrap;rounded=0;" vertex="1" parent="Vlz3xNWBXDuBfNGgYL4V-4">
          <mxGeometry x="45" y="35" width="60" height="30" as="geometry" />
        </mxCell>
        <mxCell id="Vlz3xNWBXDuBfNGgYL4V-8" style="edgeStyle=orthogonalEdgeStyle;rounded=0;orthogonalLoop=1;jettySize=auto;html=1;exitX=1;exitY=0.5;exitDx=0;exitDy=0;entryX=0;entryY=0.5;entryDx=0;entryDy=0;" edge="1" parent="1" source="Vlz3xNWBXDuBfNGgYL4V-5" target="z_N1E-0bhla6XUxOwXqp-11">
          <mxGeometry relative="1" as="geometry" />
        </mxCell>
        <mxCell id="Vlz3xNWBXDuBfNGgYL4V-9" value="Индивидуальный&lt;div&gt;учебный план&lt;/div&gt;" style="edgeLabel;html=1;align=center;verticalAlign=middle;resizable=0;points=[];" vertex="1" connectable="0" parent="Vlz3xNWBXDuBfNGgYL4V-8">
          <mxGeometry x="-0.0815" y="-4" relative="1" as="geometry">
            <mxPoint as="offset" />
          </mxGeometry>
        </mxCell>
        <mxCell id="Vlz3xNWBXDuBfNGgYL4V-10" value="" style="endArrow=classic;html=1;rounded=0;" edge="1" parent="1">
          <mxGeometry width="50" height="50" relative="1" as="geometry">
            <mxPoint x="1380" y="790" as="sourcePoint" />
            <mxPoint x="1380" y="700" as="targetPoint" />
          </mxGeometry>
        </mxCell>
        <mxCell id="Vlz3xNWBXDuBfNGgYL4V-11" value="" style="endArrow=classic;html=1;rounded=0;" edge="1" parent="1">
          <mxGeometry width="50" height="50" relative="1" as="geometry">
            <mxPoint x="1320" y="830" as="sourcePoint" />
            <mxPoint x="1320" y="700" as="targetPoint" />
          </mxGeometry>
        </mxCell>
        <mxCell id="Vlz3xNWBXDuBfNGgYL4V-12" style="edgeStyle=orthogonalEdgeStyle;rounded=0;orthogonalLoop=1;jettySize=auto;html=1;entryX=0.5;entryY=0;entryDx=0;entryDy=0;" edge="1" parent="1">
          <mxGeometry relative="1" as="geometry">
            <mxPoint x="1100" y="120" as="sourcePoint" />
            <mxPoint x="1107" y="535" as="targetPoint" />
            <Array as="points">
              <mxPoint x="1100" y="121" />
              <mxPoint x="1107" y="121" />
              <mxPoint x="1107" y="328" />
              <mxPoint x="1108" y="328" />
            </Array>
          </mxGeometry>
        </mxCell>
      </root>
    </mxGraphModel>
  </diagram>
</mxfile>
